# xmcd CD database file
# Copyright (C) 1996 Ti Kan
#
# Track frame offsets:
#	150
#	12600
#	23625
#	34800
#	51375
#	63550
#	75950
#	90250
#	101825
#	114837
#	128025
#	136650
#	147862
#	157050
#	169950
#	184250
#
# Disc length: 2648 seconds
#
# Revision: 1
# Processed by: cddbd v1.4b41PL1 Copyright (c) Steve Scherf et al.
# Submitted via: EasyCD 2.21 - (C) 1996 Greg Leichner
#
DISCID=d00a5610
DTITLE=Freddy Fender - The Country Collection
DYEAR=1900
DGENRE=
TTITLE0=Vaya Con Dios
TTITLE1=You're Turnin' Down The Flame Of Love Too Low
TTITLE2=It's All In The Game
TTITLE3=Secret Love
TTITLE4=Tell It Like It Is
TTITLE5=Pass Me By (If You're Only Passing Through)
TTITLE6=Wild Side Of Life
TTITLE7=Before The Next Teardrop Falls
TTITLE8=I Love My Rancho Grande
TTITLE9=Wasted Days And Wasted Nights
TTITLE10=Breaking Up Is Hard
TTITLE11=Mathilda
TTITLE12=Please Mr.Sandman
TTITLE13=You'll Loose A Good Thing
TTITLE14=Roses Are Red
TTITLE15=Since I Met You Baby
EXTD=
EXTT0=
EXTT1=
EXTT2=
EXTT3=
EXTT4=
EXTT5=
EXTT6=
EXTT7=
EXTT8=
EXTT9=
EXTT10=
EXTT11=
EXTT12=
EXTT13=
EXTT14=
EXTT15=
PLAYORDER=
